<?xml version="1.0" encoding="UTF-8"?>
<svg xmlns="http://www.w3.org/2000/svg" xmlns:xlink="http://www.w3.org/1999/xlink" width="16px"
  height="20px" viewBox="0 0 16 19" version="1.1">
  <g id="surface1">
    <path
      style=" stroke:none;fill-rule:nonzero;fill:rgb(90.980392%,27.843137%,11.764706%);fill-opacity:1;"
      d="M 15.113281 3.609375 C 15.996094 2.351562 16.125 1.199219 15.660156 0.496094 C 15.625 0.445312 15.558594 0.425781 15.5 0.453125 C 14.902344 0.730469 13.925781 1.542969 13.285156 2.539062 C 13.25 2.589844 13.1875 2.625 13.125 2.625 L 12.941406 2.625 C 12.882812 2.625 12.835938 2.578125 12.835938 2.519531 C 12.835938 2.507812 12.835938 2.5 12.839844 2.488281 C 12.992188 2.074219 13.34375 0.816406 12.496094 0.03125 C 12.464844 0 12.410156 0 12.378906 0.03125 C 12.367188 0.0429688 12.359375 0.0546875 12.355469 0.0703125 C 12.234375 0.621094 12.023438 2.570312 11.984375 2.960938 C 11.976562 3.003906 11.957031 3.046875 11.925781 3.078125 L 9.101562 5.746094 C 8.71875 6.105469 8.6875 6.683594 9.03125 7.078125 C 9.289062 7.382812 9.710938 7.503906 10.101562 7.398438 C 10.945312 7.164062 12.304688 6.882812 12.011719 7.585938 C 11.679688 8.386719 11.238281 8.847656 11.070312 9.003906 C 11.03125 9.039062 10.972656 9.054688 10.914062 9.042969 C 9.851562 8.773438 -0.664062 6.320312 0.03125 14.296875 C 0.0390625 14.371094 0.0859375 14.4375 0.152344 14.46875 C 0.222656 14.5 0.304688 14.496094 0.367188 14.457031 C 0.582031 14.320312 0.691406 14.214844 0.746094 14.144531 C 0.777344 14.105469 0.832031 14.101562 0.867188 14.128906 C 0.878906 14.136719 0.886719 14.144531 0.890625 14.152344 L 3.640625 18.910156 C 3.671875 18.960938 3.726562 18.996094 3.789062 18.996094 L 4.816406 18.996094 C 4.835938 18.996094 4.859375 18.984375 4.875 18.96875 C 4.890625 18.957031 4.898438 18.933594 4.898438 18.914062 C 4.898438 18.902344 4.898438 18.890625 4.894531 18.878906 C 4.636719 18.292969 3.480469 15.617188 3.480469 15.4375 C 3.480469 15.238281 7.308594 17.046875 11.488281 14.703125 C 11.707031 14.703125 10.34375 18.191406 10.070312 18.878906 C 10.054688 18.921875 10.078125 18.972656 10.121094 18.988281 C 10.132812 18.992188 10.144531 18.992188 10.15625 18.992188 L 10.691406 18.992188 C 10.753906 18.992188 10.808594 18.964844 10.839844 18.914062 C 11.25 18.238281 14.117188 13.523438 14.828125 12.183594 C 15.585938 10.753906 16.878906 6.449219 15.109375 3.757812 C 15.082031 3.710938 15.082031 3.65625 15.113281 3.609375 Z M 15.113281 3.609375 " />
    <path
      style=" stroke:none;fill-rule:nonzero;fill:rgb(90.980392%,27.843137%,11.764706%);fill-opacity:1;"
      d="M 7.242188 9.308594 C 7.199219 9.453125 7.339844 9.957031 7.671875 10.046875 C 8.003906 10.136719 8.398438 9.777344 8.441406 9.636719 C 8.480469 9.492188 8.246094 9.304688 7.917969 9.214844 C 7.585938 9.121094 7.285156 9.167969 7.242188 9.308594 Z M 7.242188 9.308594 " />
    <path
      style=" stroke:none;fill-rule:nonzero;fill:rgb(90.980392%,27.843137%,11.764706%);fill-opacity:1;"
      d="M 6.007812 9.355469 C 6.03125 9.511719 6.285156 9.90625 6.53125 9.875 C 6.777344 9.84375 6.957031 9.691406 6.9375 9.53125 C 6.917969 9.371094 6.847656 9.03125 6.601562 9.0625 C 6.355469 9.09375 5.988281 9.195312 6.007812 9.355469 Z M 6.007812 9.355469 " />
    <path
      style=" stroke:none;fill-rule:nonzero;fill:rgb(90.980392%,27.843137%,11.764706%);fill-opacity:1;"
      d="M 4.644531 9.523438 C 4.675781 9.777344 5.117188 10.089844 5.359375 10.058594 C 5.597656 10.027344 5.769531 9.800781 5.734375 9.546875 C 5.703125 9.292969 5.480469 9.113281 5.234375 9.144531 C 4.992188 9.175781 4.609375 9.269531 4.644531 9.523438 Z M 4.644531 9.523438 " />
    <path
      style=" stroke:none;fill-rule:nonzero;fill:rgb(90.980392%,27.843137%,11.764706%);fill-opacity:1;"
      d="M 3.332031 9.914062 C 3.355469 10.09375 3.5625 10.21875 3.792969 10.1875 C 4.023438 10.160156 4.367188 9.902344 4.34375 9.71875 C 4.320312 9.539062 3.917969 9.371094 3.6875 9.402344 C 3.457031 9.429688 3.304688 9.734375 3.332031 9.914062 Z M 3.332031 9.914062 " />
    <path
      style=" stroke:none;fill-rule:nonzero;fill:rgb(90.980392%,27.843137%,11.764706%);fill-opacity:1;"
      d="M 2.542969 10.175781 C 2.558594 10.289062 2.703125 10.367188 2.867188 10.347656 C 3.027344 10.328125 3.148438 10.21875 3.132812 10.101562 C 3.117188 9.984375 2.949219 9.738281 2.785156 9.757812 C 2.625 9.777344 2.527344 10.058594 2.542969 10.175781 Z M 2.542969 10.175781 " />
  </g>
</svg>